<mxfile host="app.diagrams.net" agent="Mozilla/5.0 (Windows NT 10.0; Win64; x64) AppleWebKit/537.36 (KHTML, like Gecko) Chrome/141.0.0.0 Safari/537.36 Edg/141.0.0.0" version="28.2.8">
  <diagram name="Contact" id="QFOL8rIPchowu5e1w2yE">
    <mxGraphModel dx="988" dy="638" grid="1" gridSize="10" guides="1" tooltips="1" connect="1" arrows="1" fold="1" page="1" pageScale="1" pageWidth="850" pageHeight="1100" math="0" shadow="0">
      <root>
        <mxCell id="0" />
        <mxCell id="1" parent="0" />
        <mxCell id="LMV9EG2CBEZjQGKZGtoq-1" value="&lt;b&gt;/contact view&lt;/b&gt; (Task Manager App)" style="rounded=1;whiteSpace=wrap;html=1;strokeColor=#000000;fillColor=#FFFFFF;fontSize=16;fontStyle=1;" vertex="1" parent="1">
          <mxGeometry x="40" y="40" width="800" height="500" as="geometry" />
        </mxCell>
        <mxCell id="LMV9EG2CBEZjQGKZGtoq-2" value="" style="rounded=0;whiteSpace=wrap;html=1;strokeColor=#000000;fillColor=#222222;fontColor=#FFFFFF;" vertex="1" parent="LMV9EG2CBEZjQGKZGtoq-1">
          <mxGeometry width="800" height="60" as="geometry" />
        </mxCell>
        <mxCell id="LMV9EG2CBEZjQGKZGtoq-3" value="To Dos" style="whiteSpace=wrap;html=1;strokeColor=none;fillColor=none;fontColor=#FFFFFF;fontSize=16;fontStyle=0;" vertex="1" parent="LMV9EG2CBEZjQGKZGtoq-2">
          <mxGeometry x="20" y="18" width="80" height="24" as="geometry" />
        </mxCell>
        <mxCell id="LMV9EG2CBEZjQGKZGtoq-4" value="Contact" style="whiteSpace=wrap;html=1;strokeColor=none;fillColor=none;fontColor=#FFFFFF;fontSize=16;fontStyle=1;" vertex="1" parent="LMV9EG2CBEZjQGKZGtoq-2">
          <mxGeometry x="110" y="18" width="100" height="24" as="geometry" />
        </mxCell>
        <mxCell id="LMV9EG2CBEZjQGKZGtoq-5" value="Contact Us" style="whiteSpace=wrap;html=1;strokeColor=none;fillColor=none;fontSize=20;fontStyle=1;" vertex="1" parent="LMV9EG2CBEZjQGKZGtoq-1">
          <mxGeometry x="20" y="70" width="200" height="30" as="geometry" />
        </mxCell>
        <mxCell id="LMV9EG2CBEZjQGKZGtoq-6" value="" style="rounded=1;whiteSpace=wrap;html=1;strokeColor=#000000;fillColor=#FFFFFF;" vertex="1" parent="LMV9EG2CBEZjQGKZGtoq-1">
          <mxGeometry x="20" y="110" width="760" height="360" as="geometry" />
        </mxCell>
        <mxCell id="LMV9EG2CBEZjQGKZGtoq-7" value="First Name:" style="whiteSpace=wrap;html=1;strokeColor=none;fillColor=none;fontSize=13;fontStyle=1;" vertex="1" parent="LMV9EG2CBEZjQGKZGtoq-6">
          <mxGeometry x="20" y="20" width="120" height="20" as="geometry" />
        </mxCell>
        <mxCell id="LMV9EG2CBEZjQGKZGtoq-8" value="&lt;input type=&#39;text&#39; /&gt;" style="rounded=0;whiteSpace=wrap;html=1;strokeColor=#000000;fillColor=#FFFFFF;fontSize=12;fontColor=#999999;" vertex="1" parent="LMV9EG2CBEZjQGKZGtoq-6">
          <mxGeometry x="20" y="40" width="300" height="30" as="geometry" />
        </mxCell>
        <mxCell id="LMV9EG2CBEZjQGKZGtoq-9" value="Last Name:" style="whiteSpace=wrap;html=1;strokeColor=none;fillColor=none;fontSize=13;fontStyle=1;" vertex="1" parent="LMV9EG2CBEZjQGKZGtoq-6">
          <mxGeometry x="20" y="80" width="120" height="20" as="geometry" />
        </mxCell>
        <mxCell id="LMV9EG2CBEZjQGKZGtoq-10" value="&lt;input type=&#39;text&#39; /&gt;" style="rounded=0;whiteSpace=wrap;html=1;strokeColor=#000000;fillColor=#FFFFFF;fontSize=12;fontColor=#999999;" vertex="1" parent="LMV9EG2CBEZjQGKZGtoq-6">
          <mxGeometry x="20" y="100" width="300" height="30" as="geometry" />
        </mxCell>
        <mxCell id="LMV9EG2CBEZjQGKZGtoq-11" value="Email:" style="whiteSpace=wrap;html=1;strokeColor=none;fillColor=none;fontSize=13;fontStyle=1;" vertex="1" parent="LMV9EG2CBEZjQGKZGtoq-6">
          <mxGeometry x="20" y="140" width="120" height="20" as="geometry" />
        </mxCell>
        <mxCell id="LMV9EG2CBEZjQGKZGtoq-12" value="&lt;input type=&#39;email&#39; /&gt;" style="rounded=0;whiteSpace=wrap;html=1;strokeColor=#000000;fillColor=#FFFFFF;fontSize=12;fontColor=#999999;" vertex="1" parent="LMV9EG2CBEZjQGKZGtoq-6">
          <mxGeometry x="20" y="160" width="300" height="30" as="geometry" />
        </mxCell>
        <mxCell id="LMV9EG2CBEZjQGKZGtoq-13" value="Comments:" style="whiteSpace=wrap;html=1;strokeColor=none;fillColor=none;fontSize=13;fontStyle=1;" vertex="1" parent="LMV9EG2CBEZjQGKZGtoq-6">
          <mxGeometry x="20" y="200" width="120" height="20" as="geometry" />
        </mxCell>
        <mxCell id="LMV9EG2CBEZjQGKZGtoq-14" value="&lt;textarea /&gt;" style="rounded=0;whiteSpace=wrap;html=1;strokeColor=#000000;fillColor=#FFFFFF;fontSize=12;fontColor=#999999;" vertex="1" parent="LMV9EG2CBEZjQGKZGtoq-6">
          <mxGeometry x="20" y="220" width="500" height="80" as="geometry" />
        </mxCell>
        <mxCell id="LMV9EG2CBEZjQGKZGtoq-15" value="Submit" style="rounded=1;whiteSpace=wrap;html=1;strokeColor=#000000;fillColor=#FFFFFF;fontSize=12;fontStyle=1;" vertex="1" parent="LMV9EG2CBEZjQGKZGtoq-6">
          <mxGeometry x="35" y="320" width="100" height="30" as="geometry" />
        </mxCell>
      </root>
    </mxGraphModel>
  </diagram>
</mxfile>
